<svg width="25" height="25" viewBox="0 0 25 25" fill="none" xmlns="http://www.w3.org/2000/svg">
<path fill-rule="evenodd" clip-rule="evenodd" d="M5.78246 15.682C4.80615 16.6583 4.80615 18.2412 5.78246 19.2175C6.75878 20.1938 8.34169 20.1938 9.318 19.2175L12.5 16.0355L15.682 19.2175C16.6583 20.1938 18.2412 20.1938 19.2175 19.2175C20.1939 18.2412 20.1939 16.6583 19.2175 15.682L16.0355 12.5L19.2175 9.318C20.1938 8.34169 20.1938 6.75878 19.2175 5.78247C18.2412 4.80615 16.6583 4.80615 15.682 5.78246L12.5 8.96444L9.31805 5.7825C8.34174 4.80619 6.75883 4.80619 5.78251 5.7825C4.8062 6.75881 4.8062 8.34172 5.78251 9.31803L8.96445 12.5L5.78246 15.682Z" fill="url(#paint0_linear_1_19)"/>
<defs>
<linearGradient id="paint0_linear_1_19" x1="5" y1="5" x2="20" y2="20" gradientUnits="userSpaceOnUse">
<stop stop-color="#FF0000"/>
<stop offset="1" stop-color="#860202"/>
</linearGradient>
</defs>
</svg>
