<svg width="250" height="250" viewBox="0 0 250 250" fill="none" xmlns="http://www.w3.org/2000/svg">
<rect width="250" height="250" fill="url(#paint0_linear_9_56)"/>
<path d="M143.1 231H103.5V191.7H143.1V231ZM54 85.8C54 75.8 55.6 66.7 58.8 58.5C62.2 50.1 67 42.9 73.2 36.9C79.6 30.9 87.2 26.3 96 23.1C104.8 19.7 114.8 18 126 18C137 18 146.8 19.5 155.4 22.5C164.2 25.5 171.6 29.7 177.6 35.1C183.6 40.5 188.1 47 191.1 54.6C194.3 62 195.9 70.1 195.9 78.9C195.9 85.1 195 90.7 193.2 95.7C191.4 100.7 188.9 105.3 185.7 109.5C182.5 113.7 178.8 117.6 174.6 121.2C170.4 124.8 165.8 128.2 160.8 131.4C153.8 136 148.8 140.7 145.8 145.5C143 150.1 141.6 155.6 141.6 162V168.9H105.3V162C105.3 154.2 106.2 147.4 108 141.6C110 135.8 112.6 130.7 115.8 126.3C119 121.9 122.5 118.1 126.3 114.9C130.1 111.7 134 108.7 138 105.9C144.8 101.1 149.6 96.7 152.4 92.7C155.2 88.7 156.6 84.1 156.6 78.9C156.6 71.7 153.9 65.8 148.5 61.2C143.1 56.6 135.6 54.3 126 54.3C115.2 54.3 107 57.3 101.4 63.3C96 69.3 93.3 76.8 93.3 85.8H54Z" fill="white"/>
<g clip-path="url(#clip0_9_56)">
<path d="M186.5 117.206C192.5 120.67 192.5 129.33 186.5 132.794L101 182.158C95 185.622 87.5 181.292 87.5 174.363V75.6365C87.5 68.7083 95 64.3782 101 67.8423L186.5 117.206Z" fill="#240808"/>
</g>
<defs>
<linearGradient id="paint0_linear_9_56" x1="0" y1="0" x2="250" y2="250" gradientUnits="userSpaceOnUse">
<stop stop-color="#E6537B"/>
<stop offset="1" stop-color="#FA7B4F"/>
</linearGradient>
<clipPath id="clip0_9_56">
<rect width="150" height="150" fill="white" transform="translate(50 50)"/>
</clipPath>
</defs>
</svg>
