<svg width="625" height="75" viewBox="0 0 625 75" fill="none" xmlns="http://www.w3.org/2000/svg">
<path fill-rule="evenodd" clip-rule="evenodd" d="M89.682 44.1123C90.973 44.1123 92.0255 43.0652 91.9605 41.776C91.71 36.7815 90.6565 31.8625 88.8405 27.2313C86.742 21.8793 83.666 17.0164 79.788 12.9202C75.9105 8.824 71.307 5.5747 66.2405 3.35785C61.174 1.141 55.7435 0 50.2595 0C44.7756 0 39.3454 1.141 34.2789 3.35785C29.2124 5.5747 24.6089 8.824 20.7311 12.9202C16.8534 17.0164 13.7774 21.8793 11.6788 27.2313C9.86275 31.8625 8.80935 36.7815 8.5586 41.776C8.4939 43.0652 9.5464 44.1123 10.8372 44.1123C12.128 44.1123 13.1675 43.065 13.2403 41.7763C13.4861 37.4306 14.4163 33.1529 15.9973 29.1208C17.0966 26.3175 18.4977 23.6653 20.1688 21.2148C20.3574 21.3878 20.5651 21.5461 20.7911 21.6866C22.6092 22.8162 24.9675 22.3602 26.479 20.8447C29.0322 18.2848 32.0843 16.1505 35.4957 14.5522C40.098 12.396 45.2158 11.2803 50.406 11.3017C55.5965 11.323 60.7025 12.4809 65.2825 14.6749C68.6745 16.2998 71.702 18.4568 74.2275 21.0345C75.728 22.5656 78.0855 23.0439 79.9165 21.9286C80.1375 21.794 80.3415 21.6422 80.527 21.4764C82.1205 23.8537 83.4615 26.4169 84.522 29.1208C86.103 33.1529 87.033 37.4306 87.279 41.7763C87.3515 43.065 88.3915 44.1123 89.682 44.1123ZM22.6159 38.2307C19.3676 38.2307 16.7342 40.864 16.7342 44.1123V67.639C16.7342 70.887 19.3676 73.5205 22.6159 73.5205C25.8642 73.5205 28.4975 70.887 28.4975 67.639V44.1123C28.4975 40.864 25.8642 38.2307 22.6159 38.2307ZM77.9035 38.2307C74.655 38.2307 72.0215 40.864 72.0215 44.1123V67.639C72.0215 70.887 74.655 73.5205 77.9035 73.5205C81.1515 73.5205 83.785 70.887 83.785 67.639V44.1123C83.785 40.864 81.1515 38.2307 77.9035 38.2307ZM8.5 49.1116C8.5 47.325 9.9483 45.8768 11.7349 45.8768C13.5215 45.8768 14.9698 47.325 14.9698 49.1116V62.6395C14.9698 64.426 13.5215 65.8745 11.7349 65.8745C9.9483 65.8745 8.5 64.426 8.5 62.6395V49.1116ZM88.7845 45.8768C86.9975 45.8768 85.5495 47.325 85.5495 49.1116V62.6395C85.5495 64.426 86.9975 65.8745 88.7845 65.8745C90.571 65.8745 92.019 64.426 92.019 62.6395V49.1116C92.019 47.325 90.571 45.8768 88.7845 45.8768ZM40.2608 40.8865C40.314 41.0993 40.3672 41.3985 40.4308 41.7566C40.719 43.3783 41.2213 46.205 42.9076 47.6504C47.3188 47.0622 53.2005 41.1806 52.024 30.5937C56.42 30.2274 69.081 40.8865 69.081 56.179C69.081 66.5735 60.6545 75 50.2595 75C39.8649 75 31.4384 66.5735 31.4384 56.179C31.4384 50.1845 34.6732 45.5918 40.2608 40.8865ZM134.048 20.5625C135.423 20.1459 136.965 19.9375 138.673 19.9375V12.0625C135.923 12.1042 133.423 12.4584 131.173 13.125C128.965 13.7916 127.069 14.8333 125.485 16.25C123.235 18.2083 121.59 20.5833 120.548 23.375C119.548 26.1667 119.048 29.6459 119.048 33.8125C119.048 35.5625 118.965 37.0625 118.798 38.3125C118.631 39.5625 118.402 40.6459 118.11 41.5625C117.819 42.4375 117.444 43.1875 116.985 43.8125C116.569 44.3959 116.11 44.8959 115.61 45.3125C114.527 46.2291 113.194 46.8541 111.61 47.1875C110.069 47.5209 108.569 47.6875 107.11 47.6875V55.5C109.985 55.5415 112.548 55.25 114.798 54.625C117.09 53.9585 119.09 52.9165 120.798 51.5C122.215 50.3335 123.36 49.0417 124.235 47.625C125.11 46.1667 125.756 44.6875 126.173 43.1875C126.631 41.6458 126.923 40.0833 127.048 38.5C127.215 36.875 127.298 35.3125 127.298 33.8125C127.298 32.1458 127.381 30.6875 127.548 29.4375C127.715 28.1875 127.944 27.125 128.235 26.25C128.569 25.3334 128.944 24.5625 129.36 23.9375C129.819 23.3125 130.319 22.75 130.86 22.25C131.652 21.5416 132.715 20.9791 134.048 20.5625ZM183.643 55.5H191.893V36.875C191.893 34.75 191.56 32.8125 190.893 31.0625C190.268 29.3125 189.331 27.8125 188.081 26.5625C186.872 25.2708 185.372 24.2709 183.581 23.5625C181.831 22.8541 179.831 22.5 177.581 22.5C175.456 22.5 173.518 22.9166 171.768 23.75C170.018 24.5416 168.539 25.6458 167.331 27.0625C166.164 25.6458 164.706 24.5416 162.956 23.75C161.247 22.9166 159.289 22.5 157.081 22.5C154.872 22.5 152.872 22.875 151.081 23.625C149.289 24.3334 147.768 25.3333 146.518 26.625C145.268 27.9167 144.289 29.4375 143.581 31.1875C142.914 32.9375 142.581 34.8333 142.581 36.875V55.5H150.831V36.6875C150.831 34.8542 151.393 33.375 152.518 32.25C153.685 31.125 155.206 30.5625 157.081 30.5625C158.456 30.5625 159.539 30.7916 160.331 31.25C161.122 31.7084 161.706 32.2709 162.081 32.9375C162.497 33.6041 162.768 34.2916 162.893 35C163.018 35.6666 163.081 36.2291 163.081 36.6875V55.5H171.331V36.6875C171.331 34.8542 171.914 33.375 173.081 32.25C174.247 31.125 175.747 30.5625 177.581 30.5625C178.956 30.5625 180.039 30.7916 180.831 31.25C181.622 31.7084 182.226 32.2709 182.643 32.9375C183.06 33.6041 183.331 34.2916 183.456 35C183.581 35.6666 183.643 36.2291 183.643 36.6875V55.5ZM221.417 35.875C221.875 37 222.104 38.2083 222.104 39.5C222.104 40.75 221.875 41.9375 221.417 43.0625C221 44.1458 220.417 45.1041 219.667 45.9375C218.917 46.7291 218.042 47.375 217.042 47.875C216.042 48.3334 214.979 48.5625 213.854 48.5625C212.729 48.5625 211.667 48.3334 210.667 47.875C209.667 47.4166 208.792 46.7916 208.042 46C207.292 45.1666 206.687 44.2083 206.229 43.125C205.812 42 205.604 40.7917 205.604 39.5C205.604 38.1667 205.812 36.9375 206.229 35.8125C206.687 34.6875 207.292 33.7084 208.042 32.875C208.792 32.0416 209.667 31.3959 210.667 30.9375C211.667 30.4791 212.729 30.25 213.854 30.25C214.979 30.25 216.042 30.5 217.042 31C218.042 31.4584 218.917 32.1041 219.667 32.9375C220.417 33.7709 221 34.75 221.417 35.875ZM222.542 55.5H230.354V39.4375C230.354 37.1042 229.937 34.9167 229.104 32.875C228.312 30.7917 227.187 29 225.729 27.5C224.271 25.9583 222.521 24.75 220.479 23.875C218.479 22.9584 216.271 22.5 213.854 22.5C211.396 22.5 209.146 22.9584 207.104 23.875C205.104 24.75 203.375 25.9583 201.917 27.5C200.458 29 199.312 30.7917 198.479 32.875C197.687 34.9167 197.292 37.1042 197.292 39.4375C197.292 41.7708 197.687 43.9583 198.479 46C199.312 48 200.417 49.7708 201.792 51.3125C203.208 52.8125 204.854 54 206.729 54.875C208.604 55.75 210.604 56.1875 212.729 56.1875C214.687 56.1875 216.5 55.854 218.167 55.1875C219.875 54.479 221.333 53.4585 222.542 52.125V55.5ZM237.431 47.4375C236.556 47.5625 235.576 47.5834 234.493 47.5V55.5C236.785 55.6665 238.847 55.521 240.681 55.0625C242.514 54.5625 244.097 53.6665 245.431 52.375C246.347 51.5 247.076 50.5415 247.618 49.5C248.16 48.4167 248.576 47.3125 248.868 46.1875C249.16 45.0208 249.347 43.875 249.431 42.75C249.514 41.5833 249.556 40.4583 249.556 39.375C249.556 38.2083 249.597 37.25 249.681 36.5C249.806 35.75 249.931 35.125 250.056 34.625C250.222 34.125 250.389 33.75 250.556 33.5C250.764 33.2084 250.972 32.9584 251.181 32.75C252.347 31.5833 254.076 31.125 256.368 31.375V23.375C251.743 23 248.118 24.1042 245.493 26.6875C244.535 27.5625 243.785 28.5208 243.243 29.5625C242.701 30.6042 242.285 31.6875 241.993 32.8125C241.701 33.8958 241.514 35 241.431 36.125C241.347 37.25 241.306 38.3333 241.306 39.375C241.306 41.7083 241.139 43.3541 240.806 44.3125C240.472 45.2709 240.097 45.9375 239.681 46.3125C239.097 46.8959 238.347 47.2709 237.431 47.4375ZM281.375 55.5H289.625V36.6875C289.625 34.5625 289.312 32.625 288.687 30.875C288.062 29.125 287.166 27.6458 286 26.4375C284.875 25.1875 283.5 24.2291 281.875 23.5625C280.25 22.8541 278.458 22.5 276.5 22.5C275.083 22.5 273.75 22.7291 272.5 23.1875C271.291 23.6041 270.166 24.2084 269.125 25V9H260.812V55.5H269.125V36.6875C269.125 34.8542 269.687 33.375 270.812 32.25C271.979 31.125 273.5 30.5625 275.375 30.5625C276.708 30.5625 277.77 30.7916 278.562 31.25C279.354 31.7084 279.958 32.2709 280.375 32.9375C280.791 33.5625 281.062 34.2291 281.187 34.9375C281.312 35.6459 281.375 36.2291 281.375 36.6875V55.5ZM297.134 23.3125V55.5H305.384V23.3125H297.134ZM297.071 15.1875V19.8125H305.384V15.1875C305.384 14.0208 304.967 13.0416 304.134 12.25C303.342 11.4584 302.384 11.0625 301.259 11.0625C300.092 11.0625 299.092 11.4584 298.259 12.25C297.467 13.0416 297.071 14.0208 297.071 15.1875ZM313.808 31.1875C313.141 32.9375 312.808 34.8333 312.808 36.875V55.5H321.058V36.6875C321.058 34.8542 321.641 33.375 322.808 32.25C323.975 31.125 325.475 30.5625 327.308 30.5625C328.683 30.5625 329.766 30.7916 330.558 31.25C331.35 31.7084 331.954 32.2709 332.371 32.9375C332.787 33.6041 333.058 34.2916 333.183 35C333.308 35.6666 333.371 36.2291 333.371 36.6875V55.5H341.621V36.875C341.621 34.75 341.287 32.8125 340.621 31.0625C339.996 29.3125 339.058 27.8125 337.808 26.5625C336.6 25.2708 335.1 24.2709 333.308 23.5625C331.558 22.8541 329.558 22.5 327.308 22.5C325.1 22.5 323.1 22.875 321.308 23.625C319.558 24.3334 318.037 25.3333 316.746 26.625C315.496 27.9167 314.516 29.4375 313.808 31.1875ZM371.135 35.875C371.594 37 371.823 38.2083 371.823 39.5C371.823 40.75 371.594 41.9375 371.135 43.0625C370.719 44.1458 370.135 45.1041 369.385 45.9375C368.635 46.7291 367.76 47.375 366.76 47.875C365.76 48.3334 364.698 48.5625 363.573 48.5625C362.448 48.5625 361.385 48.3334 360.385 47.875C359.385 47.4166 358.51 46.7916 357.76 46C357.01 45.1666 356.406 44.2083 355.948 43.125C355.531 42 355.323 40.7917 355.323 39.5C355.323 38.1667 355.531 36.9375 355.948 35.8125C356.406 34.6875 357.01 33.7084 357.76 32.875C358.51 32.0416 359.385 31.3959 360.385 30.9375C361.385 30.4791 362.448 30.25 363.573 30.25C364.698 30.25 365.76 30.5 366.76 31C367.76 31.4584 368.635 32.1041 369.385 32.9375C370.135 33.7709 370.719 34.75 371.135 35.875ZM378.885 61.0625C379.677 58.9375 380.073 56.5415 380.073 53.875V39.4375C380.073 37.1042 379.656 34.9167 378.823 32.875C378.031 30.7917 376.906 29 375.448 27.5C373.989 25.9583 372.239 24.75 370.198 23.875C368.198 22.9584 365.989 22.5 363.573 22.5C361.114 22.5 358.864 22.9584 356.823 23.875C354.823 24.75 353.094 25.9583 351.635 27.5C350.177 29 349.031 30.7917 348.198 32.875C347.406 34.9167 347.01 37.1042 347.01 39.4375C347.01 41.7708 347.406 43.9583 348.198 46C349.031 48 350.135 49.7708 351.51 51.3125C352.927 52.8125 354.573 54 356.448 54.875C358.323 55.75 360.323 56.1875 362.448 56.1875C364.281 56.1875 365.989 55.896 367.573 55.3125C369.198 54.6875 370.614 53.771 371.823 52.5625V54C371.823 56.875 371.135 59.1875 369.76 60.9375C368.427 62.6875 366.302 63.5625 363.385 63.5625C362.802 63.5625 362.177 63.5 361.51 63.375C360.885 63.25 360.26 63.0415 359.635 62.75C359.01 62.4585 358.427 62.0835 357.885 61.625C357.385 61.1665 357.01 60.625 356.76 60H347.76C348.052 61.7085 348.677 63.25 349.635 64.625C350.594 66 351.76 67.1665 353.135 68.125C354.51 69.125 356.073 69.896 357.823 70.4375C359.573 70.979 361.427 71.25 363.385 71.25C365.969 71.25 368.281 70.8335 370.323 70C372.406 69.2085 374.156 68.0625 375.573 66.5625C377.031 65.0625 378.135 63.229 378.885 61.0625ZM442.443 47.75C443.693 45.9583 444.672 43.9583 445.38 41.75H436.505C435.547 43.75 434.13 45.4167 432.255 46.75C430.38 48.0833 428.193 48.75 425.693 48.75C423.901 48.75 422.235 48.3541 420.693 47.5625C419.151 46.7709 417.797 45.6875 416.63 44.3125C415.505 42.9375 414.61 41.3333 413.943 39.5C413.276 37.6667 412.943 35.7083 412.943 33.625C412.943 31.5833 413.276 29.6458 413.943 27.8125C414.61 25.9792 415.505 24.375 416.63 23C417.797 21.625 419.151 20.5416 420.693 19.75C422.235 18.9584 423.901 18.5625 425.693 18.5625C428.193 18.5625 430.38 19.2083 432.255 20.5C434.13 21.7917 435.547 23.4375 436.505 25.4375H445.443C444.776 23.2292 443.818 21.2292 442.568 19.4375C441.36 17.6458 439.901 16.125 438.193 14.875C436.526 13.625 434.63 12.6666 432.505 12C430.422 11.3334 428.151 11 425.693 11C422.735 11 419.964 11.5833 417.38 12.75C414.839 13.9167 412.63 15.5208 410.755 17.5625C408.88 19.6042 407.401 22 406.318 24.75C405.235 27.5 404.693 30.4583 404.693 33.625C404.693 36.7917 405.235 39.75 406.318 42.5C407.401 45.25 408.88 47.6458 410.755 49.6875C412.63 51.729 414.839 53.3335 417.38 54.5C419.964 55.6665 422.735 56.25 425.693 56.25C428.11 56.25 430.36 55.9165 432.443 55.25C434.526 54.5415 436.401 53.5625 438.068 52.3125C439.776 51.0625 441.235 49.5417 442.443 47.75ZM472.881 35.875C473.34 37 473.569 38.2083 473.569 39.5C473.569 40.75 473.34 41.9375 472.881 43.0625C472.465 44.1458 471.881 45.1041 471.131 45.9375C470.381 46.7291 469.506 47.375 468.506 47.875C467.506 48.3334 466.444 48.5625 465.319 48.5625C464.194 48.5625 463.131 48.3334 462.131 47.875C461.131 47.4166 460.256 46.7916 459.506 46C458.756 45.1666 458.152 44.2083 457.694 43.125C457.277 42 457.069 40.7917 457.069 39.5C457.069 38.1667 457.277 36.9375 457.694 35.8125C458.152 34.6875 458.756 33.7084 459.506 32.875C460.256 32.0416 461.131 31.3959 462.131 30.9375C463.131 30.4791 464.194 30.25 465.319 30.25C466.444 30.25 467.506 30.5 468.506 31C469.506 31.4584 470.381 32.1041 471.131 32.9375C471.881 33.7709 472.465 34.75 472.881 35.875ZM474.006 55.5H481.819V39.4375C481.819 37.1042 481.402 34.9167 480.569 32.875C479.777 30.7917 478.652 29 477.194 27.5C475.736 25.9583 473.986 24.75 471.944 23.875C469.944 22.9584 467.736 22.5 465.319 22.5C462.861 22.5 460.611 22.9584 458.569 23.875C456.569 24.75 454.84 25.9583 453.381 27.5C451.923 29 450.777 30.7917 449.944 32.875C449.152 34.9167 448.756 37.1042 448.756 39.4375C448.756 41.7708 449.152 43.9583 449.944 46C450.777 48 451.881 49.7708 453.256 51.3125C454.673 52.8125 456.319 54 458.194 54.875C460.069 55.75 462.069 56.1875 464.194 56.1875C466.152 56.1875 467.965 55.854 469.631 55.1875C471.34 54.479 472.798 53.4585 474.006 52.125V55.5ZM488.896 47.4375C488.021 47.5625 487.041 47.5834 485.958 47.5V55.5C488.25 55.6665 490.312 55.521 492.146 55.0625C493.979 54.5625 495.562 53.6665 496.896 52.375C497.812 51.5 498.541 50.5415 499.083 49.5C499.625 48.4167 500.04 47.3125 500.335 46.1875C500.625 45.0208 500.81 43.875 500.895 42.75C500.98 41.5833 501.02 40.4583 501.02 39.375C501.02 38.2083 501.06 37.25 501.145 36.5C501.27 35.75 501.395 35.125 501.52 34.625C501.685 34.125 501.855 33.75 502.02 33.5C502.23 33.2084 502.435 32.9584 502.645 32.75C503.81 31.5833 505.54 31.125 507.835 31.375V23.375C503.21 23 499.583 24.1042 496.958 26.6875C496 27.5625 495.25 28.5208 494.708 29.5625C494.166 30.6042 493.75 31.6875 493.458 32.8125C493.166 33.8958 492.979 35 492.896 36.125C492.812 37.25 492.771 38.3333 492.771 39.375C492.771 41.7083 492.604 43.3541 492.271 44.3125C491.937 45.2709 491.562 45.9375 491.146 46.3125C490.562 46.8959 489.812 47.2709 488.896 47.4375ZM534.525 35.8125C534.985 36.8958 535.215 38.0625 535.215 39.3125C535.215 40.6042 534.985 41.8125 534.525 42.9375C534.11 44.0625 533.525 45.0416 532.775 45.875C532.025 46.7084 531.15 47.375 530.15 47.875C529.15 48.3334 528.09 48.5625 526.965 48.5625C525.84 48.5625 524.775 48.3334 523.775 47.875C522.775 47.375 521.9 46.7291 521.15 45.9375C520.4 45.1041 519.795 44.125 519.34 43C518.92 41.875 518.715 40.6458 518.715 39.3125C518.715 38.0208 518.92 36.8333 519.34 35.75C519.795 34.625 520.4 33.6666 521.15 32.875C521.9 32.0416 522.775 31.3959 523.775 30.9375C524.775 30.4791 525.84 30.25 526.965 30.25C528.09 30.25 529.15 30.5 530.15 31C531.15 31.4584 532.025 32.1041 532.775 32.9375C533.525 33.7291 534.11 34.6875 534.525 35.8125ZM535.215 69.8125H543.465V39.3125C543.465 37.0208 543.045 34.8542 542.215 32.8125C541.42 30.7708 540.295 28.9792 538.84 27.4375C537.38 25.8958 535.63 24.6875 533.59 23.8125C531.59 22.9375 529.38 22.5 526.965 22.5C524.505 22.5 522.255 22.9375 520.215 23.8125C518.215 24.6875 516.485 25.8958 515.025 27.4375C513.57 28.9792 512.42 30.7708 511.59 32.8125C510.795 34.8542 510.4 37.0208 510.4 39.3125C510.4 41.6458 510.795 43.8333 511.59 45.875C512.42 47.9167 513.525 49.7083 514.9 51.25C516.32 52.7915 517.945 54 519.775 54.875C521.65 55.75 523.65 56.1875 525.775 56.1875C529.57 56.1875 532.715 54.9375 535.215 52.4375V69.8125ZM577.62 47.5625C578.325 45.8125 578.68 43.9167 578.68 41.875V23.3125H570.43V42.125C570.43 43.9167 569.85 45.3958 568.68 46.5625C567.515 47.6875 566.015 48.25 564.18 48.25C562.805 48.25 561.725 48.0209 560.93 47.5625C560.14 47.1041 559.535 46.5416 559.12 45.875C558.7 45.2084 558.43 44.5416 558.305 43.875C558.18 43.1666 558.12 42.5834 558.12 42.125V23.3125H549.87V41.875C549.87 44 550.18 45.9375 550.805 47.6875C551.475 49.4375 552.41 50.9585 553.62 52.25C554.87 53.5 556.37 54.479 558.12 55.1875C559.91 55.896 561.93 56.25 564.18 56.25C566.35 56.25 568.325 55.896 570.12 55.1875C571.91 54.4375 573.43 53.4165 574.68 52.125C575.975 50.8335 576.95 49.3125 577.62 47.5625ZM604.135 30.5C605.215 31 606.135 31.7084 606.885 32.625L591.76 39C591.8 37.625 592.05 36.375 592.51 35.25C593.01 34.125 593.635 33.1666 594.385 32.375C595.175 31.5416 596.09 30.8959 597.135 30.4375C598.175 29.9791 599.3 29.75 600.51 29.75C601.84 29.75 603.05 30 604.135 30.5ZM610.635 53.25C613.34 51.2085 615.175 48.5417 616.135 45.25H607.32C606.615 46.5417 605.635 47.5 604.385 48.125C603.135 48.7084 601.84 49 600.51 49C599.09 49 597.8 48.7084 596.635 48.125C595.465 47.5 594.465 46.6458 593.635 45.5625L616.385 36C616.01 33.8333 615.32 31.9167 614.32 30.25C613.365 28.5833 612.175 27.1875 610.76 26.0625C609.385 24.8958 607.82 24.0209 606.07 23.4375C604.32 22.8125 602.49 22.5 600.57 22.5C598.28 22.5 596.135 22.9584 594.135 23.875C592.135 24.75 590.385 25.9583 588.885 27.5C587.385 29 586.195 30.7917 585.32 32.875C584.49 34.9167 584.07 37.1042 584.07 39.4375C584.07 41.7708 584.49 43.9583 585.32 46C586.195 48.0417 587.385 49.8333 588.885 51.375C590.385 52.875 592.135 54.0625 594.135 54.9375C596.135 55.8125 598.28 56.25 600.57 56.25C604.615 56.25 607.965 55.25 610.635 53.25Z" fill="url(#paint0_linear_9_57)"/>
<defs>
<linearGradient id="paint0_linear_9_57" x1="8.5" y1="37.3052" x2="648.285" y2="37.3052" gradientUnits="userSpaceOnUse">
<stop stop-color="#E43E84"/>
<stop offset="1" stop-color="#F26923"/>
</linearGradient>
</defs>
</svg>
