<svg width="80" height="80" viewBox="0 0 80 80" fill="none" xmlns="http://www.w3.org/2000/svg">
<path fill-rule="evenodd" clip-rule="evenodd" d="M63.1827 52.6019C62.9956 51.5697 63.1219 50.5051 63.5455 49.5455C63.9488 48.6044 64.6185 47.8018 65.4722 47.2364C66.3258 46.6711 67.3261 46.3677 68.35 46.3636H68.6364C70.3241 46.3636 71.9427 45.6932 73.1361 44.4998C74.3295 43.3064 75 41.6877 75 40C75 38.3123 74.3295 36.6936 73.1361 35.5002C71.9427 34.3068 70.3241 33.6364 68.6364 33.6364H68.0955C67.0716 33.6323 66.0713 33.3289 65.2176 32.7636C64.364 32.1982 63.6942 31.3956 63.2909 30.4545V30.2C62.8674 29.2403 62.741 28.1757 62.9282 27.1436C63.1153 26.1114 63.6074 25.159 64.3409 24.4091L64.5318 24.2182C65.1235 23.6272 65.5929 22.9253 65.9131 22.1528C66.2334 21.3803 66.3982 20.5522 66.3982 19.7159C66.3982 18.8796 66.2334 18.0515 65.9131 17.279C65.5929 16.5065 65.1235 15.8046 64.5318 15.2136C63.9408 14.622 63.239 14.1526 62.4664 13.8323C61.6939 13.5121 60.8658 13.3473 60.0295 13.3473C59.1933 13.3473 58.3652 13.5121 57.5927 13.8323C56.8201 14.1526 56.1183 14.622 55.5273 15.2136L55.3364 15.4045C54.5865 16.1381 53.634 16.6301 52.6019 16.8173C51.5697 17.0044 50.5051 16.8781 49.5455 16.4545C48.6044 16.0512 47.8018 15.3815 47.2364 14.5278C46.6711 13.6742 46.3677 12.6739 46.3636 11.65V11.3636C46.3636 9.6759 45.6932 8.05728 44.4998 6.86387C43.3064 5.67045 41.6877 5 40 5C38.3123 5 36.6936 5.67045 35.5002 6.86387C34.3068 8.05728 33.6364 9.6759 33.6364 11.3636V11.9045C33.6323 12.9284 33.3289 13.9287 32.7636 14.7824C32.1982 15.636 31.3956 16.3058 30.4545 16.7091H30.2C29.2403 17.1326 28.1757 17.259 27.1436 17.0718C26.1114 16.8847 25.159 16.3926 24.4091 15.6591L24.2182 15.4682C23.6272 14.8765 22.9253 14.4071 22.1528 14.0869C21.3803 13.7666 20.5522 13.6018 19.7159 13.6018C18.8796 13.6018 18.0515 13.7666 17.279 14.0869C16.5065 14.4071 15.8046 14.8765 15.2136 15.4682C14.622 16.0592 14.1526 16.761 13.8323 17.5336C13.5121 18.3061 13.3473 19.1342 13.3473 19.9705C13.3473 20.8067 13.5121 21.6348 13.8323 22.4073C14.1526 23.1799 14.622 23.8817 15.2136 24.4727L15.4045 24.6636C16.1381 25.4135 16.6301 26.366 16.8173 27.3981C17.0044 28.4303 16.8781 29.4949 16.4545 30.4545C16.0909 31.4432 15.4383 32.2997 14.5814 32.9125C13.7246 33.5254 12.7032 33.8663 11.65 33.8909H11.3636C9.6759 33.8909 8.05728 34.5614 6.86387 35.7548C5.67045 36.9482 5 38.5668 5 40.2545C5 41.9423 5.67045 43.5609 6.86387 44.7543C8.05728 45.9477 9.6759 46.6182 11.3636 46.6182H11.9045C12.9284 46.6223 13.9287 46.9256 14.7824 47.491C15.636 48.0563 16.3058 48.8589 16.7091 49.8C17.1326 50.7597 17.259 51.8243 17.0718 52.8564C16.8847 53.8886 16.3926 54.841 15.6591 55.5909L15.4682 55.7818C14.8765 56.3728 14.4071 57.0747 14.0869 57.8472C13.7666 58.6197 13.6018 59.4478 13.6018 60.2841C13.6018 61.1204 13.7666 61.9485 14.0869 62.721C14.4071 63.4935 14.8765 64.1954 15.4682 64.7864C16.0592 65.378 16.761 65.8474 17.5336 66.1677C18.3061 66.4879 19.1342 66.6527 19.9705 66.6527C20.8067 66.6527 21.6348 66.4879 22.4073 66.1677C23.1799 65.8474 23.8817 65.378 24.4727 64.7864L24.6636 64.5955C25.4135 63.8619 26.366 63.3699 27.3981 63.1827C28.4303 62.9956 29.4949 63.1219 30.4545 63.5455C31.4432 63.9091 32.2997 64.5617 32.9125 65.4186C33.5254 66.2754 33.8663 67.2968 33.8909 68.35V68.6364C33.8909 70.3241 34.5614 71.9427 35.7548 73.1361C36.9482 74.3295 38.5668 75 40.2545 75C41.9423 75 43.5609 74.3295 44.7543 73.1361C45.9477 71.9427 46.6182 70.3241 46.6182 68.6364V68.0955C46.6223 67.0716 46.9256 66.0713 47.491 65.2176C48.0563 64.364 48.8589 63.6942 49.8 63.2909C50.7597 62.8674 51.8243 62.741 52.8564 62.9282C53.8886 63.1153 54.841 63.6074 55.5909 64.3409L55.7818 64.5318C56.3728 65.1235 57.0747 65.5929 57.8472 65.9131C58.6197 66.2334 59.4478 66.3982 60.2841 66.3982C61.1204 66.3982 61.9485 66.2334 62.721 65.9131C63.4935 65.5929 64.1954 65.1235 64.7864 64.5318C65.378 63.9408 65.8474 63.239 66.1677 62.4664C66.4879 61.6939 66.6527 60.8658 66.6527 60.0295C66.6527 59.1933 66.4879 58.3652 66.1677 57.5927C65.8474 56.8201 65.378 56.1183 64.7864 55.5273L64.5955 55.3364C63.8619 54.5865 63.3699 53.634 63.1827 52.6019ZM40 50.3636C45.5228 50.3636 50 45.8051 50 40.1818C50 34.5586 45.5228 30 40 30C34.4772 30 30 34.5586 30 40.1818C30 45.8051 34.4772 50.3636 40 50.3636Z" fill="black" stroke="black" stroke-width="5" stroke-linecap="round" stroke-linejoin="round"/>
</svg>
